<?xml version="1.0" encoding="UTF-8" standalone="no"?>
<!-- Created with Inkscape (http://www.inkscape.org/) -->

<svg
   width="32"
   height="32"
   viewBox="0 0 8.4666666 8.4666666"
   version="1.1"
   id="svg1"
   xml:space="preserve"
   inkscape:version="1.3.2 (091e20ef0f, 2023-11-25)"
   sodipodi:docname="icon.svg"
   inkscape:export-filename="large.png"
   inkscape:export-xdpi="6144"
   inkscape:export-ydpi="6144"
   xmlns:inkscape="http://www.inkscape.org/namespaces/inkscape"
   xmlns:sodipodi="http://sodipodi.sourceforge.net/DTD/sodipodi-0.dtd"
   xmlns="http://www.w3.org/2000/svg"
   xmlns:svg="http://www.w3.org/2000/svg"><sodipodi:namedview
     id="namedview1"
     pagecolor="#ffffff"
     bordercolor="#666666"
     borderopacity="1.0"
     inkscape:showpageshadow="2"
     inkscape:pageopacity="0.0"
     inkscape:pagecheckerboard="0"
     inkscape:deskcolor="#d1d1d1"
     inkscape:document-units="mm"
     inkscape:zoom="32"
     inkscape:cx="16.984375"
     inkscape:cy="15.609375"
     inkscape:window-width="2560"
     inkscape:window-height="1375"
     inkscape:window-x="1920"
     inkscape:window-y="32"
     inkscape:window-maximized="1"
     inkscape:current-layer="layer1"
     showgrid="false" /><defs
     id="defs1"><inkscape:path-effect
       effect="offset"
       id="path-effect1"
       is_visible="true"
       lpeversion="1.2"
       linejoin_type="miter"
       unit="mm"
       offset="0.1"
       miter_limit="4"
       attempt_force_join="false"
       update_on_knot_move="true" /></defs><g
     inkscape:label="Layer 1"
     inkscape:groupmode="layer"
     id="layer1"><path
       id="path25"
       style="fill:#fafafa;stroke:none;fill-opacity:1"
       d="M 4.2333333 0.38602295 A 3.8472278 3.8472278 0 0 0 2.4437785 0.83819173 L 2.6267131 1.1844238 A 3.4499686 3.4499686 0 0 1 4.2333333 0.78341471 A 3.4499686 3.4499686 0 0 1 7.6734334 4.1103434 L 8.0770264 4.095874 A 3.8472278 3.8472278 0 0 0 4.2333333 0.38602295 z M 4.2333333 0.96428223 A 3.2765155 3.2765155 0 0 0 2.5951904 1.3957804 A 3.2765155 3.2765155 0 0 0 1.416451 2.5616007 C 1.4212004 2.5617725 2.4368631 2.6002208 3.3429484 3.2525146 C 3.3475152 3.2471536 3.3518041 3.2415805 3.356901 3.236495 C 3.4215631 3.1719726 3.5098904 3.1507121 3.5858276 3.1507121 L 3.7579102 3.1507121 C 3.8259775 3.1507121 3.90129 3.1691701 3.9615153 3.2132406 C 4.0121148 3.250267 4.0398554 3.3045083 4.0628011 3.3579346 C 4.2016776 3.2508605 4.3277496 3.1155721 4.5144531 3.1155721 C 4.5350424 3.1155721 4.5551716 3.1177577 4.5754313 3.1191895 C 4.6453871 2.5580627 4.6061778 1.8165721 4.2333333 0.96428223 z M 2.192631 0.97358398 A 3.8472278 3.8472278 0 0 0 0.90123698 6.1572469 A 3.8472278 3.8472278 0 0 0 2.1879801 7.4806803 L 2.3962362 7.1489176 A 3.4499686 3.4499686 0 0 1 1.245402 5.9582926 A 3.4499686 3.4499686 0 0 1 2.4065715 1.315682 L 2.192631 0.97358398 z M 4.5361572 1.5099854 C 4.5410833 1.5270943 4.5459515 1.5441455 4.5506266 1.561145 A 2.7024326 2.7024326 0 0 1 6.6471395 3.0189372 C 6.6594171 3.0058403 6.6716588 2.9929442 6.683313 2.9801799 A 2.7521353 2.7521353 0 0 0 4.5361572 1.5099854 z M 7.0894897 2.6298136 C 7.0881714 2.6319177 6.9386583 2.8681352 6.6523071 3.1584635 C 6.7294199 3.1758382 6.8059656 3.1969035 6.880717 3.2251261 L 6.8822673 3.2251261 C 6.9540721 3.2534096 7.0304846 3.3086832 7.0662354 3.3946248 C 7.1019859 3.4805669 7.0863368 3.5696985 7.0564168 3.6406047 L 7.0073242 3.7594604 C 6.978146 3.8293372 6.9241041 3.9029908 6.8414429 3.9372274 C 6.758788 3.971459 6.6698441 3.9591078 6.5990804 3.9330933 L 6.5970133 3.9330933 L 6.5949463 3.931543 C 6.5668941 3.92043 6.5540204 3.9240041 6.5282837 3.9155233 C 6.7159784 3.9957472 6.8646018 4.0807187 6.970634 4.1888916 L 6.9721842 4.1909587 C 7.092239 4.3119228 7.1442671 4.4831998 7.1442668 4.6689657 C 7.1442668 4.6958059 7.143124 4.72232 7.1406494 4.7485474 C 7.1600808 4.7093635 7.1844917 4.6728933 7.2166138 4.6415771 C 7.2901363 4.5698995 7.3871065 4.535809 7.4889486 4.5242716 A 3.2765155 3.2765155 0 0 0 7.5096191 4.2333333 A 3.2765155 3.2765155 0 0 0 7.0894897 2.6298136 z M 1.9326986 2.7404012 A 2.7521353 2.7521353 0 0 0 1.6887858 3.218925 C 1.7104148 3.208883 1.7319276 3.198547 1.7544149 3.1899862 A 2.7024326 2.7024326 0 0 1 1.9848918 2.7522868 C 1.9670918 2.7480789 1.9498927 2.7442226 1.9326986 2.7404012 z M 2.1802287 3.2902384 C 1.9021281 3.2902382 1.6826057 3.3765732 1.5213542 3.5491374 C 1.3624395 3.7193695 1.2831258 3.9678389 1.2831258 4.2943115 C 1.2831258 4.6161202 1.3703687 4.8599649 1.5456421 5.025533 C 1.7209155 5.1911013 1.9573296 5.2735799 2.254126 5.2735799 C 2.4808129 5.2735799 2.668866 5.2432598 2.8184326 5.1826294 C 2.888542 5.156978 2.9233358 5.1035338 2.9233358 5.0219157 L 2.9233358 4.8994425 C 2.9233358 4.84814 2.9082412 4.8131952 2.8778605 4.7945394 C 2.8498169 4.7758835 2.8111821 4.7758835 2.7621053 4.7945394 C 2.6078647 4.8481741 2.4505175 4.8751546 2.289266 4.8751546 C 2.0298614 4.8751546 1.8786463 4.7525895 1.8365804 4.5077352 C 1.8319067 4.4797521 1.837028 4.4573963 1.8510498 4.4410726 C 1.8674087 4.4247489 1.8896689 4.4167847 1.9177124 4.4167847 L 2.8918132 4.4167847 C 2.9852923 4.4167847 3.032373 4.3700194 3.032373 4.2767415 L 3.032373 4.1615031 C 3.032373 3.8840014 2.9563836 3.6691914 2.80448 3.5176147 C 2.6549132 3.3660382 2.4466443 3.2902384 2.1802287 3.2902384 z M 4.5149699 3.2902384 C 4.2812719 3.2902384 4.103709 3.385054 3.9821859 3.5739421 L 3.9718506 3.5739421 C 3.9601653 3.5739421 3.9471149 3.5490158 3.9330933 3.5000448 L 3.9155233 3.4406169 C 3.8898165 3.3636625 3.8373674 3.3253784 3.7579102 3.3253784 L 3.5858276 3.3253784 C 3.4923485 3.3253784 3.4457845 3.3721437 3.4457845 3.4654215 L 3.4457845 5.9381388 C 3.4457845 6.0314167 3.4923485 6.078182 3.5858276 6.078182 L 3.8421427 6.078182 C 3.9356219 6.078182 3.9821859 6.0314167 3.9821859 5.9381388 L 3.9821859 5.1722941 C 3.9821859 5.1349831 3.9901149 5.1126273 4.0064738 5.1056315 C 4.0251699 5.0986357 4.0499904 5.108402 4.0803711 5.1340535 C 4.1902092 5.2273315 4.3304177 5.2735799 4.5010173 5.2735799 C 4.7183563 5.2735799 4.8925951 5.187245 5.023466 5.014681 C 5.1543369 4.8397851 5.2198364 4.5951718 5.2198364 4.2803589 C 5.2198364 3.9632141 5.1563809 3.7193695 5.0301839 3.5491374 C 4.903987 3.3765732 4.732309 3.2902384 4.5149699 3.2902384 z M 6.2817871 3.2902384 C 6.0480891 3.2902384 5.8633605 3.3370037 5.7278158 3.4302816 C 5.5946079 3.5212275 5.5283447 3.6543276 5.5283447 3.8292236 C 5.5283447 3.9808002 5.5664628 4.099509 5.6435832 4.185791 C 5.7207035 4.2697411 5.8517026 4.3501656 6.0363241 4.42712 C 6.2092605 4.5017422 6.320561 4.557756 6.369637 4.5950684 C 6.4187139 4.6323794 6.4430176 4.6745199 6.4430176 4.7211589 C 6.4430176 4.8260963 6.353214 4.8782552 6.1732666 4.8782552 C 6.0307108 4.8782552 5.8702862 4.8471667 5.6926758 4.7842041 C 5.6435991 4.7655476 5.6042007 4.7663173 5.57382 4.7873047 C 5.5457765 4.8059605 5.5314453 4.8409053 5.5314453 4.8922078 L 5.5314453 5.043103 C 5.5314453 5.1270531 5.5687997 5.1804973 5.6435832 5.2038167 C 5.7908128 5.2504557 5.9650516 5.2735799 6.1660319 5.2735799 C 6.4301106 5.2735799 6.6299338 5.2214212 6.7654785 5.1164836 C 6.9010234 5.0115459 6.9690837 4.8620004 6.9690837 4.6684489 C 6.9690839 4.5122084 6.9278881 4.3934996 6.8460937 4.3118815 C 6.7642995 4.2279314 6.6325367 4.1475068 6.4502523 4.0705526 C 6.2866638 4.0052581 6.1799688 3.9559222 6.1308919 3.9232747 C 6.0818152 3.8882954 6.0575114 3.8487258 6.0575114 3.8044189 C 6.0575114 3.7228008 6.13094 3.6819458 6.2781698 3.6819458 C 6.3856708 3.6819458 6.5133456 3.7114971 6.6605754 3.7697957 C 6.7493806 3.802443 6.8110391 3.7767479 6.8460937 3.6927979 L 6.8951864 3.5739421 C 6.9325782 3.4853283 6.9069937 3.4234031 6.8181885 3.3884237 C 6.6452519 3.3231288 6.4664085 3.2902384 6.2817871 3.2902384 z M 2.1874634 3.6716105 C 2.2832795 3.6716105 2.359269 3.698591 2.4153564 3.7522257 C 2.473781 3.8058606 2.5098577 3.8790892 2.523877 3.9723674 C 2.5285512 4.0003504 2.5226658 4.0227063 2.506307 4.0390299 C 2.489948 4.0553537 2.4676878 4.0633179 2.4396444 4.0633179 L 1.931665 4.0633179 C 1.9012844 4.0633179 1.877744 4.0553537 1.8613851 4.0390299 C 1.8473653 4.0227063 1.8427608 3.9990653 1.8474325 3.96875 C 1.889498 3.7705345 2.002842 3.6716105 2.1874634 3.6716105 z M 4.3361694 3.7170858 C 4.5605193 3.7170858 4.672583 3.9023446 4.672583 4.2731242 C 4.672583 4.6485676 4.5630802 4.8363973 4.3434041 4.8363973 C 4.2125335 4.8363973 4.1188888 4.7909174 4.0628011 4.6999715 C 4.0090507 4.6090256 3.9821859 4.4692466 3.9821859 4.2803589 L 3.9821859 4.220931 C 3.9868602 4.046035 4.0150051 3.9188451 4.0664185 3.8395589 C 4.1201689 3.7579408 4.2099726 3.7170858 4.3361694 3.7170858 z M 5.383134 4.0560832 C 5.3903671 4.127944 5.3945028 4.2022842 5.3945028 4.2803589 C 5.3945028 4.6193412 5.3245282 4.9043993 5.1635091 5.1195841 C 5.152784 5.1337261 5.1408438 5.146575 5.1294027 5.1598918 C 5.5765719 5.4748562 6.2065202 5.7720178 7.0646851 5.8678589 A 3.2765155 3.2765155 0 0 0 7.2899943 5.3836507 C 7.2699336 5.3712096 7.2505806 5.3574632 7.2326335 5.3417928 C 7.1329884 5.2547907 7.08794 5.1221485 7.0879395 4.9909098 C 7.0879395 4.980227 7.0894947 4.9695453 7.0900065 4.9588704 C 7.0446843 5.0747841 6.9720038 5.1768679 6.8724487 5.2539429 C 6.6933697 5.3925837 6.453881 5.4492798 6.1665487 5.4492798 C 5.9519889 5.4492798 5.7589803 5.424828 5.5898397 5.3712484 C 5.5243639 5.350516 5.4590535 5.3076507 5.4162069 5.2461914 C 5.3730414 5.1842756 5.3572957 5.1114921 5.3572957 5.0436198 L 5.3572957 4.8932414 C 5.3572957 4.810682 5.3882706 4.703547 5.4766683 4.6436442 C 5.561893 4.5859109 5.6721521 4.5904892 5.7521037 4.619873 L 5.7562378 4.619873 C 5.9180526 4.6768155 6.0570864 4.7041056 6.1727498 4.7041056 C 6.1864286 4.7041056 6.182612 4.7008247 6.1939372 4.6999715 C 6.149743 4.6749904 6.0965624 4.6440122 5.9691447 4.5888672 C 5.7716231 4.5065359 5.6200316 4.4196906 5.5138753 4.30413 L 5.5138753 4.302063 C 5.4512916 4.2320442 5.4087166 4.1480843 5.383134 4.0560832 z M 7.6770508 4.3666585 A 3.4499686 3.4499686 0 0 1 7.6584473 4.5258219 C 7.7486001 4.5400395 7.8341294 4.5758923 7.9028768 4.635376 C 7.9640125 4.6875549 8.0032532 4.7573579 8.0253499 4.8332967 A 3.8472278 3.8472278 0 0 0 8.0682414 4.3811279 L 7.6770508 4.3666585 z M 3.2711182 4.4255697 C 3.2308317 4.440182 3.1883825 4.4577417 3.146578 4.4746623 C 3.1387977 4.4852145 3.1303819 4.4955289 3.1207397 4.5051514 C 3.056078 4.5696732 2.9677504 4.5909342 2.8918132 4.5909342 L 2.8881958 4.5909342 C 2.8747862 4.5976115 2.8619083 4.6026078 2.8484049 4.6095378 C 2.8902833 4.6126852 2.9327529 4.6243013 2.9719116 4.6493286 C 3.0603104 4.7062757 3.0990356 4.8145064 3.0990356 4.8989258 L 3.0990356 5.0219157 C 3.0990356 5.152033 3.0043057 5.2959077 2.8799276 5.3438599 C 2.7024647 5.4151561 2.4950001 5.4492798 2.254126 5.4492798 C 2.0967288 5.4492798 1.9490495 5.4265039 1.8143595 5.3815837 C 1.6743424 5.525347 1.5360469 5.6858344 1.4019816 5.8678589 A 3.2765155 3.2765155 0 0 0 2.5951904 7.0708862 A 3.2765155 3.2765155 0 0 0 4.1940592 7.5085856 C 4.1923711 7.5054012 3.9188896 6.9872752 3.8354248 6.2528483 L 3.5858276 6.2528483 C 3.5098904 6.2528483 3.4215626 6.2315887 3.356901 6.1670654 C 3.2922399 6.1025431 3.2711182 6.0144294 3.2711182 5.9386556 L 3.2711182 4.4255697 z M 7.5685303 4.6932536 C 7.365213 4.6932536 7.2631226 4.7921776 7.2631226 4.9903931 C 7.2631229 5.0883348 7.2912675 5.1615635 7.3473551 5.2105347 C 7.4034427 5.2595057 7.4773881 5.284432 7.5685303 5.284432 C 7.6573354 5.284432 7.7294836 5.2595057 7.7855713 5.2105347 C 7.8439954 5.1615637 7.8734212 5.0883348 7.8734212 4.9903931 C 7.8734212 4.8877875 7.8452763 4.8132731 7.7891886 4.7666341 C 7.7331012 4.7176631 7.6596725 4.6932536 7.5685303 4.6932536 z M 7.9157959 5.3257731 C 7.9102476 5.3310964 7.9051779 5.3367797 7.8992594 5.3417928 L 7.8992594 5.3438599 C 7.8089026 5.4217965 7.6887497 5.4590983 7.5685303 5.4590983 C 7.532193 5.4590983 7.4959603 5.4554716 7.4605265 5.448763 A 3.4499686 3.4499686 0 0 1 7.2212646 5.9582926 A 3.4499686 3.4499686 0 0 1 2.6199951 7.2739746 L 2.4303426 7.630542 A 3.8472278 3.8472278 0 0 0 7.5654297 6.1567301 A 3.8472278 3.8472278 0 0 0 7.9157959 5.3257731 z M 5.4828695 5.5950073 C 5.4526396 5.5950073 5.4373942 5.6103178 5.4373942 5.6404826 L 5.4373942 6.4099447 C 5.4373942 6.4401091 5.4526396 6.4549032 5.4828695 6.4549032 L 5.5655518 6.4549032 C 5.5957813 6.4549032 5.611027 6.4401091 5.611027 6.4099447 L 5.611027 5.6404826 C 5.611027 5.6103178 5.5957813 5.5950073 5.5655518 5.5950073 L 5.4828695 5.5950073 z M 4.4762126 5.8249674 C 4.390057 5.8249674 4.3276871 5.8550713 4.2891439 5.9154012 L 4.284493 5.9154012 C 4.2814671 5.9154012 4.2776557 5.9074669 4.2731242 5.89163 L 4.2689901 5.8745768 C 4.2621888 5.8489365 4.2450377 5.8363363 4.2178304 5.8363363 L 4.1702881 5.8363363 C 4.1400582 5.8363363 4.1248128 5.85113 4.1248128 5.8812948 L 4.1248128 6.4099447 C 4.1248128 6.4401091 4.1400582 6.4549032 4.1702881 6.4549032 L 4.2529704 6.4549032 C 4.2831999 6.4549032 4.2984456 6.4401091 4.2984456 6.4099447 L 4.2984456 6.1655151 C 4.2984456 6.0968903 4.307974 6.0460141 4.3268677 6.0135864 C 4.345762 5.9804052 4.3781965 5.9639771 4.4250529 5.9639771 C 4.4877801 5.9639771 4.519104 6.0080363 4.519104 6.0962687 L 4.519104 6.4099447 C 4.519104 6.4401091 4.5343494 6.4549032 4.5645793 6.4549032 L 4.6472616 6.4549032 C 4.6774911 6.4549032 4.6927368 6.4401091 4.6927368 6.4099447 L 4.6927368 6.0513102 C 4.6927368 5.9751437 4.6734027 5.9182466 4.6348592 5.8812948 C 4.5970718 5.8435881 4.5442301 5.8249674 4.4762126 5.8249674 z M 5.1268188 5.8249674 C 5.0331054 5.8249674 4.9590238 5.851803 4.9046102 5.9060994 C 4.8509518 5.9596424 4.8245117 6.0406222 4.8245117 6.1484619 C 4.8245117 6.3603707 4.9203887 6.466272 5.1123494 6.466272 C 5.1788558 6.466272 5.2333248 6.4547891 5.275647 6.4321655 C 5.2915181 6.4238698 5.2994181 6.4074417 5.2994181 6.3825562 L 5.2994181 6.3329468 C 5.2994181 6.3156042 5.2942565 6.3041213 5.284432 6.2988403 C 5.2753635 6.293558 5.263096 6.29412 5.2472249 6.3009074 C 5.2094378 6.3174981 5.1694188 6.3262288 5.1278524 6.3262288 C 5.0432083 6.3262288 5.0012451 6.26658 5.0012451 6.1474284 C 5.0012451 6.0252602 5.0432083 5.9639771 5.1278524 5.9639771 C 5.153548 5.9639771 5.1859439 5.9702772 5.2244873 5.9830973 C 5.2539617 5.9936551 5.2735737 5.9854411 5.2833984 5.9582926 L 5.3025187 5.9086833 C 5.3138549 5.8792724 5.3056768 5.8598552 5.277714 5.8508057 C 5.2331246 5.8334611 5.1827444 5.8249674 5.1268188 5.8249674 z M 6.4016764 5.8471883 A 2.7024326 2.7024326 0 0 1 4.2333333 6.9360107 A 2.7024326 2.7024326 0 0 1 4.076237 6.9246419 C 4.0814786 6.9420538 4.0864689 6.9591044 4.0917399 6.9758016 A 2.7521353 2.7521353 0 0 0 4.2333333 6.9856201 A 2.7521353 2.7521353 0 0 0 6.4528361 5.8601074 C 6.43559 5.8558805 6.4187035 5.8515768 6.4016764 5.8471883 z " /></g></svg>
