<?xml version="1.0" encoding="UTF-8" standalone="no"?>
<svg
   version="1.1"
   viewBox="0 0 93.518997 66.754677"
   xml:space="preserve"
   id="svg4"
   sodipodi:docname="discord__.svg"
   width="93.518997"
   height="66.754677"
   inkscape:version="1.2.1 (9c6d41e410, 2022-07-14)"
   xmlns:inkscape="http://www.inkscape.org/namespaces/inkscape"
   xmlns:sodipodi="http://sodipodi.sourceforge.net/DTD/sodipodi-0.dtd"
   xmlns="http://www.w3.org/2000/svg"
   xmlns:svg="http://www.w3.org/2000/svg"><defs
     id="defs8" /><sodipodi:namedview
     id="namedview6"
     pagecolor="#ffffff"
     bordercolor="#000000"
     borderopacity="0.25"
     inkscape:showpageshadow="2"
     inkscape:pageopacity="0.0"
     inkscape:pagecheckerboard="0"
     inkscape:deskcolor="#d1d1d1"
     showgrid="false"
     inkscape:zoom="1.761194"
     inkscape:cx="47.411017"
     inkscape:cy="26.686441"
     inkscape:window-width="960"
     inkscape:window-height="1211"
     inkscape:window-x="20"
     inkscape:window-y="20"
     inkscape:window-maximized="0"
     inkscape:current-layer="svg4" /><path
     d="M 81.979,8.3356746 C 70.52,-0.23932545 59.541,0.00167455 59.541,0.00167455 L 58.419,1.2836746 c 13.623,4.087 19.954,10.0969994 19.954,10.0969994 -19.491,-10.73099945 -44.317,-10.65399945 -64.59,0 0,0 6.571,-6.3309994 20.996,-10.41799942 L 33.978,6.745478e-4 c 0,0 -10.899,-0.2399999978 -22.438,8.3340000522 0,0 -11.54,20.7549994 -11.54,46.3189994 0,0 6.732,11.54 24.442,12.101 0,0 2.965,-3.526 5.369,-6.571 -10.177,-3.045 -14.024,-9.376 -14.024,-9.376 6.394,4.001 12.859,6.505 20.916,8.094 13.108,2.698 29.413,-0.076 41.591,-8.094 0,0 -4.007,6.491 -14.505,9.456 2.404,2.965 5.289,6.411 5.289,6.411 17.71,-0.561 24.441,-12.101 24.441,-12.02 C 93.518,29.090674 81.979,8.3356746 81.979,8.3356746 Z M 31.814,47.201674 c -4.488,0 -8.174,-3.927 -8.174,-8.815 0.328,-11.707 16.102,-11.671 16.348,0 0,4.888 -3.607,8.815 -8.174,8.815 z m 29.249,0 c -4.488,0 -8.174,-3.927 -8.174,-8.815 0.36,-11.684 15.937,-11.689 16.348,0 0,4.888 -3.606,8.815 -8.174,8.815 z"
     style="clip-rule:evenodd;fill-rule:evenodd"
     id="path2"
     sodipodi:nodetypes="ccccccccccccccccccsccssccs" /></svg>
